<svg width="482" height="160" viewBox="0 0 482 160" fill="none" xmlns="http://www.w3.org/2000/svg">
<path d="M7.68 122.4V32.8H20.992V109.088H59.584V122.4H7.68ZM98.65 124.064C92.762 124.064 87.386 122.549 82.522 119.52C77.7007 116.491 73.8393 112.437 70.938 107.36C68.0793 102.24 66.65 96.5867 66.65 90.4C66.65 85.7067 67.482 81.3333 69.146 77.28C70.81 73.184 73.0927 69.6 75.994 66.528C78.938 63.4133 82.3513 60.9813 86.234 59.232C90.1167 57.4827 94.2553 56.608 98.65 56.608C103.557 56.608 108.058 57.632 112.154 59.68C116.25 61.6853 119.749 64.48 122.65 68.064C125.551 71.6053 127.685 75.7013 129.05 80.352C130.415 84.96 130.821 89.8667 130.266 95.072H80.922C81.4767 98.016 82.5433 100.683 84.122 103.072C85.7433 105.419 87.7913 107.275 90.266 108.64C92.7833 110.005 95.578 110.709 98.65 110.752C101.893 110.752 104.837 109.941 107.482 108.32C110.17 106.699 112.367 104.459 114.074 101.6L127.578 104.736C125.018 110.411 121.157 115.061 115.994 118.688C110.831 122.272 105.05 124.064 98.65 124.064ZM80.474 84.896H116.826C116.399 81.824 115.311 79.0507 113.562 76.576C111.855 74.0587 109.701 72.0747 107.098 70.624C104.538 69.1307 101.722 68.384 98.65 68.384C95.6207 68.384 92.8047 69.1093 90.202 70.56C87.642 72.0107 85.5087 73.9947 83.802 76.512C82.138 78.9867 81.0287 81.7813 80.474 84.896ZM193.092 58.4H206.404V122.4H193.028L192.516 113.12C190.639 116.405 188.1 119.051 184.9 121.056C181.7 123.061 177.924 124.064 173.572 124.064C168.879 124.064 164.463 123.189 160.324 121.44C156.185 119.648 152.537 117.173 149.38 114.016C146.265 110.859 143.833 107.232 142.084 103.136C140.335 98.9973 139.46 94.56 139.46 89.824C139.46 85.2587 140.313 80.9707 142.02 76.96C143.727 72.9067 146.095 69.3653 149.124 66.336C152.153 63.3067 155.652 60.9387 159.62 59.232C163.631 57.4827 167.919 56.608 172.484 56.608C177.135 56.608 181.231 57.6747 184.772 59.808C188.356 61.8987 191.321 64.5867 193.668 67.872L193.092 58.4ZM173.252 111.2C177.007 111.2 180.292 110.283 183.108 108.448C185.924 106.571 188.1 104.053 189.636 100.896C191.215 97.7387 192.004 94.24 192.004 90.4C192.004 86.5173 191.215 82.9973 189.636 79.84C188.057 76.6827 185.86 74.1867 183.044 72.352C180.271 70.4747 177.007 69.536 173.252 69.536C169.54 69.536 166.148 70.4747 163.076 72.352C160.004 74.2293 157.572 76.7467 155.78 79.904C153.988 83.0613 153.092 86.56 153.092 90.4C153.092 94.2827 154.009 97.8027 155.844 100.96C157.721 104.075 160.175 106.571 163.204 108.448C166.276 110.283 169.625 111.2 173.252 111.2ZM221.735 122.4V58.4H235.047V65.184C237.266 62.5387 239.996 60.448 243.239 58.912C246.482 57.376 249.98 56.608 253.735 56.608C256.124 56.608 258.492 56.928 260.839 57.568L255.527 71.008C253.863 70.368 252.199 70.048 250.535 70.048C247.719 70.048 245.138 70.752 242.791 72.16C240.444 73.5253 238.567 75.3813 237.159 77.728C235.751 80.0747 235.047 82.6773 235.047 85.536V122.4H221.735ZM328.895 82.272V122.4H315.583V85.536C315.583 82.6773 314.879 80.0747 313.471 77.728C312.106 75.3813 310.25 73.5253 307.903 72.16C305.599 70.752 302.996 70.048 300.095 70.048C297.279 70.048 294.698 70.752 292.351 72.16C290.004 73.5253 288.127 75.3813 286.719 77.728C285.311 80.0747 284.607 82.6773 284.607 85.536V122.4H271.295V58.4H284.607V65.184C286.826 62.5387 289.556 60.448 292.799 58.912C296.042 57.376 299.54 56.608 303.295 56.608C308.031 56.608 312.34 57.76 316.223 60.064C320.106 62.368 323.178 65.4613 325.439 69.344C327.743 73.2267 328.895 77.536 328.895 82.272Z" fill="#0071DC"/>
<path d="M479.358 76.3691C476.782 70.0738 472.503 64.7316 467.108 60.9503C464.424 59.0709 461.454 57.576 458.266 56.5567C455.099 55.5151 451.716 54.9713 448.223 54.9713C443.745 54.9713 439.444 55.878 435.515 57.532C435.186 57.6666 434.882 57.8016 434.577 57.9608C431.039 59.5683 427.807 61.8327 425.035 64.5279C424.14 65.4103 423.289 66.3389 422.436 67.3804C420.93 69.1693 419.38 71.2302 417.873 73.3129C417.568 73.7417 417.24 74.195 416.935 74.6265C416.105 75.8028 408.178 87.8494 406.781 90.0008C406.082 91.0864 405.252 92.3092 404.357 93.6449C404.16 93.9391 403.943 94.2574 403.726 94.5735C402.24 96.7695 400.58 99.08 399.052 101.119C398.288 102.136 397.523 103.087 396.868 103.881C396.192 104.694 395.58 105.351 395.143 105.782C393.267 107.615 391.06 109.11 388.638 110.129C386.214 111.149 383.572 111.715 380.776 111.715C378.855 111.715 377 111.442 375.254 110.945C374.359 110.695 373.484 110.379 372.633 109.994C368.877 108.362 365.667 105.601 363.418 102.136C362.284 100.393 361.388 98.4916 360.776 96.4529C360.188 94.4141 359.838 92.2649 359.838 90.0005C359.838 86.9889 360.429 84.1586 361.476 81.5535C363.071 77.6598 365.734 74.3542 369.075 71.9991C370.755 70.8205 372.589 69.916 374.555 69.2814C376.518 68.6467 378.593 68.2866 380.776 68.2866C383.572 68.3085 386.214 68.8526 388.638 69.8698C391.06 70.911 393.267 72.3838 395.143 74.2169C395.58 74.6481 396.192 75.3268 396.868 76.1206C398.047 77.5468 399.444 79.38 400.843 81.3061C401.389 82.0755 401.934 82.845 402.48 83.6366C404.576 80.468 408.244 74.8978 410.165 72.0209C409.839 71.5676 409.51 71.1167 409.184 70.6633C408.31 69.5067 407.435 68.399 406.563 67.3796C405.689 66.3381 404.86 65.4095 403.964 64.5271C400.951 61.5816 397.393 59.1828 393.484 57.5309C389.555 55.8769 385.252 54.9702 380.776 54.9702C376.126 54.9702 371.672 55.9453 367.612 57.7341C361.542 60.3832 356.409 64.821 352.763 70.4131C350.951 73.1994 349.511 76.2994 348.507 79.5831C347.524 82.8898 347 86.377 347 90.0011C347 94.8237 347.938 99.4429 349.642 103.631C352.218 109.948 356.497 115.271 361.868 119.052C364.576 120.932 367.546 122.424 370.734 123.465C373.9 124.485 377.284 125.029 380.777 125.029C385.252 125.029 389.555 124.122 393.485 122.47C397.393 120.816 400.93 118.417 403.943 115.496L403.964 115.474C404.86 114.614 405.69 113.661 406.564 112.619C408.069 110.83 409.619 108.772 411.127 106.689C411.432 106.257 411.76 105.826 412.065 105.397C412.894 104.197 423.747 87.69 424.641 86.3545C424.839 86.0603 425.057 85.7442 425.274 85.4259C426.76 83.2521 428.419 80.9197 429.948 78.8831C430.711 77.8637 431.477 76.9127 432.131 76.1211C432.807 75.3052 433.419 74.6484 433.856 74.2175C435.732 72.3843 437.939 70.9116 440.362 69.8703C440.952 69.6226 441.541 69.4194 442.153 69.2136C444.074 68.6257 446.103 68.3093 448.223 68.2871C451.127 68.309 453.878 68.8975 456.366 70.0073C460.121 71.637 463.332 74.3987 465.579 77.8637C466.716 79.6083 467.611 81.51 468.221 83.5463C468.833 85.5851 469.161 87.7365 469.161 90.0008C469.161 93.0125 468.571 95.865 467.524 98.4454C465.929 102.339 463.266 105.669 459.925 108C458.244 109.178 456.411 110.107 454.445 110.718C452.502 111.352 450.407 111.715 448.223 111.715C445.428 111.715 442.786 111.149 440.361 110.13C437.939 109.11 435.732 107.615 433.856 105.782C433.419 105.351 432.807 104.672 432.131 103.881C430.952 102.477 429.553 100.619 428.156 98.6956C427.589 97.9259 427.043 97.1321 426.498 96.3405C426.323 96.6123 426.148 96.8846 425.952 97.1786C422.348 102.658 420.077 106.123 418.834 108C419.16 108.453 419.489 108.885 419.815 109.338C420.689 110.492 421.564 111.602 422.435 112.619C423.288 113.661 424.139 114.614 425.035 115.474C428.047 118.417 431.606 120.816 435.515 122.47C439.444 124.122 443.745 125.029 448.223 125.029C452.873 125.029 457.327 124.056 461.366 122.289C467.457 119.618 472.588 115.18 476.236 109.586C478.046 106.802 479.511 103.722 480.492 100.416C481.475 97.1321 482 93.623 482 90.0011C482 85.1785 481.062 80.5593 479.358 76.3691Z" fill="#FFC221"/>
</svg>
