<svg width="482" height="160" viewBox="0 0 482 160" fill="none" xmlns="http://www.w3.org/2000/svg">
<path d="M1.408 122.4L13.952 32.8H27.264L16.576 109.088H55.232L53.312 122.4H1.408ZM92.122 124.064C86.234 124.064 81.0713 122.549 76.634 119.52C72.2393 116.491 68.954 112.437 66.778 107.36C64.6447 102.24 64.0047 96.5867 64.858 90.4C65.498 85.7067 66.9273 81.3333 69.146 77.28C71.4073 73.184 74.2233 69.6 77.594 66.528C80.9647 63.4133 84.698 60.9813 88.794 59.232C92.9327 57.4827 97.1993 56.608 101.594 56.608C106.501 56.608 110.853 57.632 114.65 59.68C118.49 61.6853 121.605 64.48 123.994 68.064C126.383 71.6053 127.941 75.7013 128.666 80.352C129.391 84.96 129.093 89.8667 127.77 95.072H78.49C78.5753 98.016 79.258 100.683 80.538 103.072C81.8607 105.419 83.6527 107.275 85.914 108.64C88.1753 110.005 90.8633 110.709 93.978 110.752C97.2207 110.752 100.293 109.941 103.194 108.32C106.095 106.699 108.591 104.459 110.682 101.6L123.738 104.736C120.367 110.411 115.845 115.061 110.17 118.688C104.538 122.272 98.522 124.064 92.122 124.064ZM79.45 84.896H115.802C115.802 81.824 115.119 79.0507 113.754 76.576C112.389 74.0587 110.511 72.0747 108.122 70.624C105.775 69.1307 103.066 68.384 99.994 68.384C96.922 68.384 93.9993 69.1093 91.226 70.56C88.4953 72.0107 86.0847 73.9947 83.994 76.512C81.946 78.9867 80.4313 81.7813 79.45 84.896ZM195.78 58.4H209.092L200.132 122.4H186.756L187.524 113.12C185.177 116.405 182.255 119.051 178.756 121.056C175.3 123.061 171.396 124.064 167.044 124.064C162.351 124.064 158.063 123.189 154.18 121.44C150.297 119.648 147.012 117.173 144.324 114.016C141.636 110.859 139.695 107.232 138.5 103.136C137.305 98.9973 137.049 94.56 137.732 89.824C138.372 85.2587 139.823 80.9707 142.084 76.96C144.388 72.9067 147.247 69.3653 150.66 66.336C154.116 63.3067 157.956 60.9387 162.18 59.232C166.447 57.4827 170.863 56.608 175.428 56.608C180.079 56.608 184.025 57.6747 187.268 59.808C190.553 61.8987 193.135 64.5867 195.012 67.872L195.78 58.4ZM168.516 111.2C172.271 111.2 175.684 110.283 178.756 108.448C181.828 106.571 184.367 104.053 186.372 100.896C188.42 97.7387 189.7 94.24 190.212 90.4C190.767 86.5173 190.468 82.9973 189.316 79.84C188.207 76.6827 186.372 74.1867 183.812 72.352C181.252 70.4747 178.116 69.536 174.404 69.536C170.692 69.536 167.172 70.4747 163.844 72.352C160.516 74.2293 157.721 76.7467 155.46 79.904C153.241 83.0613 151.855 86.56 151.3 90.4C150.788 94.2827 151.215 97.8027 152.58 100.96C153.945 104.075 156.036 106.571 158.852 108.448C161.668 110.283 164.889 111.2 168.516 111.2ZM215.463 122.4L224.423 58.4H237.735L236.839 65.184C239.399 62.5387 242.407 60.448 245.863 58.912C249.319 57.376 252.924 56.608 256.679 56.608C259.068 56.608 261.394 56.928 263.655 57.568L256.423 71.008C254.887 70.368 253.287 70.048 251.623 70.048C248.764 70.048 246.055 70.752 243.495 72.16C240.978 73.5253 238.866 75.3813 237.159 77.728C235.452 80.0747 234.386 82.6773 233.959 85.536L228.775 122.4H215.463ZM328.255 82.272L322.623 122.4H309.311L314.495 85.536C314.922 82.6773 314.58 80.0747 313.471 77.728C312.404 75.3813 310.804 73.5253 308.671 72.16C306.538 70.752 304.042 70.048 301.183 70.048C298.324 70.048 295.615 70.752 293.055 72.16C290.538 73.5253 288.426 75.3813 286.719 77.728C285.012 80.0747 283.946 82.6773 283.519 85.536L278.335 122.4H265.023L273.983 58.4H287.295L286.399 65.184C288.959 62.5387 291.967 60.448 295.423 58.912C298.879 57.376 302.484 56.608 306.239 56.608C310.975 56.608 315.114 57.76 318.655 60.064C322.196 62.368 324.842 65.4613 326.591 69.344C328.383 73.2267 328.938 77.536 328.255 82.272Z" fill="#0071DC"/>
<path d="M479.358 76.3691C476.782 70.0738 472.503 64.7316 467.108 60.9503C464.424 59.0709 461.454 57.576 458.266 56.5567C455.099 55.5151 451.716 54.9713 448.223 54.9713C443.745 54.9713 439.444 55.878 435.515 57.532C435.186 57.6666 434.882 57.8016 434.577 57.9608C431.039 59.5683 427.807 61.8327 425.035 64.5279C424.14 65.4103 423.289 66.3389 422.436 67.3804C420.93 69.1693 419.38 71.2302 417.873 73.3129C417.568 73.7417 417.24 74.195 416.935 74.6265C416.105 75.8028 408.178 87.8494 406.781 90.0008C406.082 91.0864 405.252 92.3092 404.357 93.6449C404.16 93.9391 403.943 94.2574 403.726 94.5735C402.24 96.7695 400.58 99.08 399.052 101.119C398.288 102.136 397.523 103.087 396.868 103.881C396.192 104.694 395.58 105.351 395.143 105.782C393.267 107.615 391.06 109.11 388.638 110.129C386.214 111.149 383.572 111.715 380.776 111.715C378.855 111.715 377 111.442 375.254 110.945C374.359 110.695 373.484 110.379 372.633 109.994C368.877 108.362 365.667 105.601 363.418 102.136C362.284 100.393 361.388 98.4916 360.776 96.4529C360.188 94.4141 359.838 92.2649 359.838 90.0005C359.838 86.9889 360.429 84.1586 361.476 81.5535C363.071 77.6598 365.734 74.3542 369.075 71.9991C370.755 70.8205 372.589 69.916 374.555 69.2814C376.518 68.6467 378.593 68.2866 380.776 68.2866C383.572 68.3085 386.214 68.8526 388.638 69.8698C391.06 70.911 393.267 72.3838 395.143 74.2169C395.58 74.6481 396.192 75.3268 396.868 76.1206C398.047 77.5468 399.444 79.38 400.843 81.3061C401.389 82.0755 401.934 82.845 402.48 83.6366C404.576 80.468 408.244 74.8978 410.165 72.0209C409.839 71.5676 409.51 71.1167 409.184 70.6633C408.31 69.5067 407.435 68.399 406.563 67.3796C405.689 66.3381 404.86 65.4095 403.964 64.5271C400.951 61.5816 397.393 59.1828 393.484 57.5309C389.555 55.8769 385.252 54.9702 380.776 54.9702C376.126 54.9702 371.672 55.9453 367.612 57.7341C361.542 60.3832 356.409 64.821 352.763 70.4131C350.951 73.1994 349.511 76.2994 348.507 79.5831C347.524 82.8898 347 86.377 347 90.0011C347 94.8237 347.938 99.4429 349.642 103.631C352.218 109.948 356.497 115.271 361.868 119.052C364.576 120.932 367.546 122.424 370.734 123.465C373.9 124.485 377.284 125.029 380.777 125.029C385.252 125.029 389.555 124.122 393.485 122.47C397.393 120.816 400.93 118.417 403.943 115.496L403.964 115.474C404.86 114.614 405.69 113.661 406.564 112.619C408.069 110.83 409.619 108.772 411.127 106.689C411.432 106.257 411.76 105.826 412.065 105.397C412.894 104.197 423.747 87.69 424.641 86.3545C424.839 86.0603 425.057 85.7442 425.274 85.4259C426.76 83.2521 428.419 80.9197 429.948 78.8831C430.711 77.8637 431.477 76.9127 432.131 76.1211C432.807 75.3052 433.419 74.6484 433.856 74.2175C435.732 72.3843 437.939 70.9116 440.362 69.8703C440.952 69.6226 441.541 69.4194 442.153 69.2136C444.074 68.6257 446.103 68.3093 448.223 68.2871C451.127 68.309 453.878 68.8975 456.366 70.0073C460.121 71.637 463.332 74.3987 465.579 77.8637C466.716 79.6083 467.611 81.51 468.221 83.5463C468.833 85.5851 469.161 87.7365 469.161 90.0008C469.161 93.0125 468.571 95.865 467.524 98.4454C465.929 102.339 463.266 105.669 459.925 108C458.244 109.178 456.411 110.107 454.445 110.718C452.502 111.352 450.407 111.715 448.223 111.715C445.428 111.715 442.786 111.149 440.361 110.13C437.939 109.11 435.732 107.615 433.856 105.782C433.419 105.351 432.807 104.672 432.131 103.881C430.952 102.477 429.553 100.619 428.156 98.6956C427.589 97.9259 427.043 97.1321 426.498 96.3405C426.323 96.6123 426.148 96.8846 425.952 97.1786C422.348 102.658 420.077 106.123 418.834 108C419.16 108.453 419.489 108.885 419.815 109.338C420.689 110.492 421.564 111.602 422.435 112.619C423.288 113.661 424.139 114.614 425.035 115.474C428.047 118.417 431.606 120.816 435.515 122.47C439.444 124.122 443.745 125.029 448.223 125.029C452.873 125.029 457.327 124.056 461.366 122.289C467.457 119.618 472.588 115.18 476.236 109.586C478.046 106.802 479.511 103.722 480.492 100.416C481.475 97.1321 482 93.623 482 90.0011C482 85.1785 481.062 80.5593 479.358 76.3691Z" fill="#FFC221"/>
</svg>
