<svg width="417" height="169" viewBox="0 0 417 169" fill="none" xmlns="http://www.w3.org/2000/svg">
<path d="M384.867 77.4847C382.787 72.6283 379.332 68.5072 374.976 65.5902C372.809 64.1404 370.411 62.9872 367.837 62.2008C365.28 61.3974 362.548 60.9778 359.728 60.9778C356.113 60.9778 352.64 61.6773 349.468 62.9533C349.202 63.057 348.956 63.1612 348.71 63.284C345.854 64.5241 343.244 66.2709 341.006 68.3501C340.283 69.0308 339.596 69.7471 338.907 70.5506C337.692 71.9306 336.44 73.5204 335.223 75.1271C334.977 75.4579 334.712 75.8076 334.466 76.1404C333.796 77.0479 327.395 86.341 326.268 88.0006C325.703 88.838 325.033 89.7814 324.31 90.8118C324.152 91.0387 323.976 91.2843 323.801 91.5281C322.601 93.2222 321.261 95.0046 320.027 96.5773C319.411 97.362 318.793 98.0955 318.264 98.7078C317.718 99.3356 317.224 99.8422 316.871 100.175C315.356 101.589 313.574 102.742 311.619 103.528C309.662 104.315 307.528 104.751 305.271 104.751C303.72 104.751 302.222 104.541 300.813 104.158C300.09 103.965 299.384 103.721 298.697 103.424C295.663 102.165 293.072 100.035 291.256 97.3618C290.34 96.0177 289.617 94.5506 289.123 92.9779C288.648 91.4051 288.366 89.7472 288.366 88.0004C288.366 85.6771 288.843 83.4937 289.688 81.4841C290.975 78.4804 293.126 75.9304 295.823 74.1135C297.18 73.2044 298.66 72.5066 300.248 72.017C301.833 71.5275 303.508 71.2496 305.271 71.2496C307.528 71.2665 309.662 71.6863 311.619 72.471C313.575 73.2742 315.356 74.4103 316.871 75.8245C317.224 76.1571 317.718 76.6807 318.264 77.293C319.216 78.3933 320.344 79.8074 321.473 81.2932C321.914 81.8868 322.354 82.4804 322.795 83.091C324.487 80.6467 327.449 76.3497 329 74.1304C328.736 73.7807 328.471 73.4329 328.208 73.0831C327.502 72.1909 326.796 71.3363 326.092 70.55C325.386 69.7465 324.716 69.0302 323.993 68.3495C321.561 66.0772 318.688 64.2267 315.532 62.9524C312.359 61.6765 308.885 60.977 305.271 60.977C301.517 60.977 297.92 61.7292 294.642 63.1091C289.741 65.1527 285.597 68.5762 282.653 72.8901C281.19 75.0396 280.028 77.431 279.217 79.9641C278.423 82.515 278 85.2051 278 88.0008C278 91.7211 278.757 95.2845 280.133 98.5152C282.213 103.389 285.668 107.495 290.005 110.411C292.191 111.861 294.589 113.013 297.163 113.816C299.719 114.603 302.452 115.022 305.272 115.022C308.885 115.022 312.359 114.323 315.532 113.049C318.688 111.773 321.544 109.922 323.976 107.668L323.994 107.651C324.717 106.988 325.386 106.253 326.092 105.449C327.308 104.069 328.559 102.481 329.776 100.874C330.023 100.541 330.288 100.209 330.534 99.8779C331.203 98.9517 339.966 86.218 340.688 85.1878C340.848 84.9608 341.024 84.717 341.199 84.4714C342.399 82.7945 343.738 80.9952 344.973 79.4241C345.589 78.6377 346.207 77.9041 346.736 77.2934C347.281 76.664 347.776 76.1573 348.128 75.8249C349.643 74.4108 351.425 73.2746 353.381 72.4714C353.858 72.2803 354.333 72.1236 354.827 71.9647C356.378 71.5112 358.017 71.2672 359.728 71.2501C362.073 71.2669 364.294 71.7209 366.303 72.5771C369.335 73.8343 371.927 75.9647 373.742 78.6377C374.659 79.9835 375.382 81.4506 375.875 83.0214C376.369 84.5942 376.634 86.2538 376.634 88.0006C376.634 90.3239 376.157 92.5244 375.312 94.515C374.024 97.5187 371.874 100.088 369.176 101.886C367.82 102.795 366.339 103.511 364.752 103.982C363.183 104.472 361.491 104.752 359.728 104.752C357.471 104.752 355.338 104.315 353.381 103.529C351.425 102.742 349.643 101.589 348.128 100.175C347.775 99.8422 347.281 99.3187 346.735 98.708C345.783 97.6249 344.654 96.192 343.526 94.708C343.069 94.1142 342.628 93.5019 342.187 92.8912C342.046 93.1009 341.905 93.311 341.746 93.5377C338.837 97.7647 337.003 100.437 335.999 101.886C336.263 102.236 336.528 102.568 336.791 102.918C337.497 103.808 338.203 104.665 338.907 105.449C339.596 106.252 340.283 106.988 341.006 107.651C343.438 109.922 346.312 111.773 349.467 113.049C352.64 114.323 356.113 115.022 359.728 115.022C363.483 115.022 367.079 114.272 370.34 112.909C375.258 110.848 379.4 107.425 382.346 103.109C383.808 100.961 384.99 98.5853 385.782 96.035C386.576 93.5019 387 90.7949 387 88.0008C387 84.2805 386.243 80.7172 384.867 77.4847Z" fill="#FFC221"/>
<path d="M19.584 115.512C15.0613 115.512 11.8187 114.616 9.856 112.824C7.89333 110.947 6.912 107.661 6.912 102.968V55.48C6.912 54.1147 6.99733 53.0907 7.168 52.408C7.424 51.64 7.89333 51.128 8.576 50.872C9.25867 50.5307 10.2827 50.36 11.648 50.36H19.072C19.072 50.5307 18.9867 51.2133 18.816 52.408C18.7307 53.6027 18.688 55.0107 18.688 56.632V101.432C18.688 104.589 19.072 106.851 19.84 108.216C20.608 109.581 22.0587 110.264 24.192 110.264C24.8747 110.264 25.6853 110.179 26.624 110.008C27.648 109.837 28.288 109.709 28.544 109.624V114.488C28.032 114.573 27.136 114.744 25.856 115C24.576 115.341 22.4853 115.512 19.584 115.512ZM61.637 115.768C56.4317 115.768 52.037 115.427 48.453 114.744C44.9543 114.061 42.1383 112.781 40.005 110.904C37.957 109.027 36.5063 106.424 35.653 103.096C34.7997 99.768 34.373 95.4587 34.373 90.168C34.373 83.8533 35.1837 78.7333 36.805 74.808C38.4263 70.8827 41.285 68.024 45.381 66.232C49.5623 64.3547 55.365 63.416 62.789 63.416C68.5917 63.416 73.1997 64.1413 76.613 65.592C80.1117 66.9573 82.629 69.1333 84.165 72.12C85.701 75.1067 86.469 78.904 86.469 83.512V91.704H50.501C50.501 90.3387 50.7997 89.2293 51.397 88.376C51.9943 87.5227 53.1037 87.096 54.725 87.096H75.717L75.589 83.768C75.5037 78.9893 74.4797 75.4907 72.517 73.272C70.6397 71.0533 67.2263 69.944 62.277 69.944C58.181 69.944 54.981 70.584 52.677 71.864C50.373 73.144 48.7517 75.2347 47.813 78.136C46.8743 80.952 46.405 84.8773 46.405 89.912C46.405 95.1173 46.917 99.0853 47.941 101.816C49.0503 104.461 50.8423 106.253 53.317 107.192C55.877 108.131 59.4183 108.6 63.941 108.6C65.5623 108.6 67.4397 108.557 69.573 108.472C71.7917 108.387 74.0103 108.259 76.229 108.088C78.533 107.917 80.581 107.704 82.373 107.448C84.165 107.192 85.3597 106.936 85.957 106.68V108.472C85.957 109.411 85.7437 110.349 85.317 111.288C84.8903 112.227 83.9943 112.995 82.629 113.592C80.837 114.445 78.1917 115 74.693 115.256C71.2797 115.597 66.9277 115.768 61.637 115.768ZM120.961 115.768C115.67 115.768 111.361 115.512 108.033 115C104.705 114.573 102.145 113.763 100.353 112.568C98.561 111.373 97.3237 109.752 96.641 107.704C96.0437 105.656 95.745 103.096 95.745 100.024C95.745 95.672 96.2143 92.3867 97.153 90.168C98.177 87.864 99.8837 86.2853 102.273 85.432C104.748 84.5787 108.033 84.152 112.129 84.152C114.262 84.152 116.609 84.1947 119.169 84.28C121.814 84.3653 124.332 84.4933 126.721 84.664C129.196 84.7493 131.329 84.8773 133.121 85.048C134.998 85.2187 136.236 85.432 136.833 85.688C136.833 82.104 136.534 79.288 135.937 77.24C135.34 75.192 134.358 73.656 132.993 72.632C131.713 71.608 130.092 70.9253 128.129 70.584C126.166 70.2427 123.862 70.072 121.217 70.072C118.316 70.072 115.414 70.1573 112.513 70.328C109.697 70.4987 107.009 70.7973 104.449 71.224C101.974 71.6507 99.9263 72.2053 98.305 72.888V70.456C98.305 68.4933 98.817 67.0853 99.841 66.232C100.95 65.3787 102.273 64.824 103.809 64.568C105.516 64.1413 108.033 63.8 111.361 63.544C114.689 63.288 118.23 63.2027 121.985 63.288C126.764 63.288 130.817 63.544 134.145 64.056C137.558 64.4827 140.289 65.4213 142.337 66.872C144.47 68.3227 146.006 70.4987 146.945 73.4C147.969 76.3013 148.481 80.184 148.481 85.048V111.16C147.713 112.781 145.11 113.976 140.673 114.744C136.236 115.427 129.665 115.768 120.961 115.768ZM120.961 110.392C124.374 110.392 127.148 110.307 129.281 110.136C131.5 109.88 133.206 109.581 134.401 109.24C135.596 108.813 136.406 108.301 136.833 107.704V90.04C136.065 89.784 134.7 89.5707 132.737 89.4C130.774 89.144 128.726 88.9307 126.593 88.76C124.46 88.5893 122.668 88.504 121.217 88.504C118.06 88.504 115.5 88.7173 113.537 89.144C111.574 89.5707 110.166 90.552 109.313 92.088C108.46 93.624 108.033 96.0133 108.033 99.256C108.033 101.901 108.332 104.035 108.929 105.656C109.526 107.277 110.721 108.472 112.513 109.24C114.39 110.008 117.206 110.392 120.961 110.392ZM173.7 115H165.508C164.228 115 163.247 114.659 162.564 113.976C161.881 113.293 161.54 112.013 161.54 110.136V66.488C163.588 65.8907 166.447 65.2507 170.116 64.568C173.785 63.8853 178.18 63.544 183.3 63.544C188.335 63.544 192.303 63.8853 195.204 64.568C198.105 65.1653 200.239 66.104 201.604 67.384C203.055 68.5787 203.951 70.072 204.292 71.864C204.719 73.5707 204.932 75.576 204.932 77.88H193.412L193.284 76.088C193.284 74.04 192.729 72.5893 191.62 71.736C190.596 70.7973 189.359 70.2 187.908 69.944C186.457 69.688 185.007 69.56 183.556 69.56C181.337 69.56 179.332 69.7733 177.54 70.2C175.833 70.6267 174.553 71.1813 173.7 71.864V115ZM217.874 115C215.485 115 214.29 113.805 214.29 111.416V67.384C216.85 66.36 220.306 65.464 224.658 64.696C229.01 63.8427 233.959 63.416 239.506 63.416C244.967 63.416 249.319 63.7573 252.562 64.44C255.89 65.1227 258.407 66.232 260.114 67.768C261.821 69.2187 262.93 71.1387 263.442 73.528C264.039 75.9173 264.338 78.8613 264.338 82.36V110.136C264.338 111.331 264.21 112.312 263.954 113.08C263.783 113.848 263.314 114.36 262.546 114.616C261.863 114.872 260.797 115 259.346 115H252.306V79.8C252.306 76.472 251.282 74.0827 249.234 72.632C247.186 71.1813 243.943 70.456 239.506 70.456C238.141 70.456 236.605 70.584 234.898 70.84C233.191 71.0107 231.57 71.3093 230.034 71.736C228.498 72.1627 227.261 72.7173 226.322 73.4V115H217.874Z" fill="#0071DC"/>
</svg>
