<svg width="109" height="108" viewBox="0 0 109 108" fill="none" xmlns="http://www.w3.org/2000/svg">
<path d="M106.867 43.4847C104.787 38.6283 101.332 34.5072 96.9764 31.5902C94.8089 30.1404 92.4107 28.9872 89.8369 28.2008C87.2803 27.3974 84.5482 26.9778 81.7283 26.9778C78.113 26.9778 74.6403 27.6773 71.4676 28.9533C71.2023 29.057 70.9562 29.1612 70.7101 29.284C67.854 30.5241 65.2442 32.2709 63.006 34.3501C62.2831 35.0308 61.5961 35.7471 60.9074 36.5506C59.692 37.9306 58.4404 39.5204 57.2233 41.1271C56.977 41.4579 56.7119 41.8076 56.4658 42.1404C55.7961 43.0479 49.3953 52.341 48.2676 54.0006C47.703 54.838 47.0333 55.7814 46.3101 56.8118C46.1517 57.0387 45.9763 57.2843 45.8006 57.5281C44.6008 59.2222 43.2613 61.0046 42.027 62.5773C41.4106 63.362 40.7926 64.0955 40.264 64.7078C39.7184 65.3356 39.2242 65.8422 38.8713 66.1747C37.3563 67.5888 35.5744 68.742 33.6188 69.5284C31.6615 70.3147 29.5284 70.7514 27.2713 70.7514C25.7202 70.7514 24.2223 70.5413 22.8125 70.1576C22.0895 69.965 21.3836 69.7209 20.6966 69.4242C17.6633 68.1653 15.0722 66.0348 13.2561 63.3618C12.3402 62.0177 11.617 60.5506 11.1231 58.9779C10.6477 57.4051 10.3656 55.7472 10.3656 54.0004C10.3656 51.6771 10.8425 49.4937 11.6877 47.4841C12.9755 44.4804 15.1257 41.9304 17.8234 40.1135C19.18 39.2044 20.6604 38.5066 22.2477 38.017C23.8333 37.5275 25.5083 37.2496 27.2713 37.2496C29.5284 37.2665 31.6615 37.6863 33.6188 38.471C35.5747 39.2742 37.3563 40.4103 38.8713 41.8245C39.2242 42.1571 39.7184 42.6807 40.264 43.293C41.2161 44.3933 42.3437 45.8074 43.4731 47.2932C43.9138 47.8868 44.3545 48.4804 44.7952 49.091C46.4874 46.6467 49.4485 42.3497 50.9997 40.1304C50.7363 39.7807 50.4713 39.4329 50.2077 39.0831C49.5018 38.1909 48.796 37.3363 48.092 36.55C47.386 35.7465 46.7163 35.0302 45.9933 34.3495C43.5608 32.0772 40.6877 30.2267 37.5318 28.9524C34.3588 27.6765 30.8849 26.977 27.2713 26.977C23.5165 26.977 19.9202 27.7292 16.6423 29.1091C11.7411 31.1527 7.59722 34.5762 4.65315 38.8901C3.18995 41.0396 2.02778 43.431 1.21688 45.9641C0.423439 48.515 0 51.2051 0 54.0008C0 57.7211 0.757465 61.2845 2.13316 64.5152C4.21268 69.3887 7.66789 73.4946 12.0047 76.4115C14.1911 77.8615 16.5893 79.0127 19.1629 79.8162C21.7193 80.6026 24.4516 81.0221 27.2715 81.0221C30.8851 81.0221 34.3593 80.3227 37.532 79.0486C40.6879 77.7726 43.5438 75.9217 45.9765 73.6684L45.9935 73.6513C46.7167 72.9877 47.3865 72.2526 48.0922 71.4492C49.3076 70.0692 50.5592 68.4811 51.7763 66.8741C52.0226 66.5415 52.2876 66.2088 52.5337 65.8779C53.2035 64.9517 61.9663 52.218 62.6878 51.1878C62.8479 50.9608 63.0235 50.717 63.1989 50.4714C64.399 48.7945 65.7383 46.9952 66.9726 45.4241C67.5889 44.6377 68.207 43.9041 68.7356 43.2934C69.2814 42.664 69.7755 42.1573 70.1283 41.8249C71.6432 40.4108 73.4251 39.2746 75.381 38.4714C75.8578 38.2803 76.333 38.1236 76.8269 37.9647C78.378 37.5112 80.0169 37.2672 81.7283 37.2501C84.0729 37.2669 86.2939 37.7209 88.3028 38.5771C91.3345 39.8343 93.9273 41.9647 95.7418 44.6377C96.6594 45.9835 97.3823 47.4506 97.8748 49.0214C98.3689 50.5942 98.6339 52.2538 98.6339 54.0006C98.6339 56.3239 98.1571 58.5244 97.3119 60.515C96.0241 63.5187 93.8739 66.0878 91.1762 67.8856C89.8196 68.7947 88.3392 69.5113 86.7519 69.9821C85.1835 70.4717 83.4912 70.7516 81.7283 70.7516C79.4712 70.7516 77.3381 70.3149 75.3807 69.5286C73.4249 68.7422 71.643 67.589 70.1281 66.1749C69.7751 65.8422 69.281 65.3187 68.7354 64.708C67.7833 63.6249 66.6541 62.192 65.5262 60.708C65.0685 60.1142 64.6276 59.5019 64.187 58.8912C64.0458 59.1009 63.9047 59.311 63.7463 59.5377C60.8369 63.7647 59.0033 66.4375 57.9995 67.8858C58.2628 68.2355 58.5281 68.5682 58.7914 68.9179C59.4974 69.8083 60.2031 70.6647 60.9072 71.4492C61.5956 72.2524 62.2829 72.9877 63.0058 73.6513C65.4383 75.9217 68.3117 77.7726 71.4674 79.0486C74.6403 80.3227 78.1128 81.0221 81.7281 81.0221C85.4826 81.0221 89.0792 80.2716 92.3398 78.9088C97.2582 76.8481 101.4 73.4246 104.346 69.109C105.808 66.9615 106.99 64.5853 107.782 62.035C108.576 59.5019 109 56.7949 109 54.0008C109 50.2805 108.243 46.7172 106.867 43.4847Z" fill="#FFC221"/>
</svg>
