<svg width="417" height="153" viewBox="0 0 417 153" fill="none" xmlns="http://www.w3.org/2000/svg">
<g clip-path="url(#clip0_10_9)">
<path d="M383.502 77.6795C381.546 72.913 378.297 68.8682 374.201 66.0052C372.162 64.5823 369.907 63.4504 367.487 62.6786C365.082 61.89 362.513 61.4782 359.861 61.4782C356.461 61.4782 353.195 62.1648 350.211 63.4171C349.962 63.519 349.73 63.6212 349.499 63.7417C346.813 64.9589 344.358 66.6733 342.254 68.714C341.574 69.3821 340.928 70.0852 340.28 70.8737C339.137 72.2281 337.96 73.7885 336.815 75.3655C336.584 75.6901 336.334 76.0334 336.103 76.3601C335.473 77.2507 329.454 86.3717 328.393 88.0006C327.862 88.8225 327.232 89.7484 326.552 90.7597C326.403 90.9825 326.238 91.2235 326.073 91.4628C324.945 93.1255 323.685 94.8749 322.524 96.4185C321.944 97.1887 321.363 97.9085 320.866 98.5095C320.353 99.1256 319.888 99.6229 319.556 99.9492C318.132 101.337 316.456 102.469 314.617 103.241C312.776 104.013 310.77 104.441 308.647 104.441C307.188 104.441 305.78 104.235 304.454 103.858C303.774 103.669 303.11 103.43 302.464 103.139C299.611 101.903 297.175 99.8119 295.467 97.1884C294.605 95.8692 293.925 94.4293 293.461 92.8857C293.014 91.3421 292.748 89.7148 292.748 88.0004C292.748 85.7202 293.197 83.5772 293.992 81.6048C295.203 78.6567 297.225 76.1539 299.762 74.3707C301.038 73.4784 302.43 72.7935 303.923 72.313C305.414 71.8325 306.989 71.5598 308.647 71.5598C310.77 71.5764 312.776 71.9884 314.617 72.7586C316.456 73.5469 318.132 74.662 319.556 76.0499C319.888 76.3764 320.353 76.8903 320.866 77.4913C321.761 78.5712 322.822 79.9591 323.884 81.4174C324.298 82 324.713 82.5826 325.127 83.182C326.719 80.7829 329.504 76.5654 330.962 74.3873C330.715 74.044 330.465 73.7026 330.218 73.3594C329.554 72.4836 328.89 71.6449 328.228 70.8731C327.564 70.0845 326.934 69.3815 326.254 68.7134C323.967 66.4832 321.264 64.6669 318.297 63.4163C315.313 62.1639 312.046 61.4774 308.647 61.4774C305.116 61.4774 301.734 62.2157 298.651 63.5701C294.042 65.5758 290.145 68.9359 287.376 73.1699C286 75.2796 284.907 77.6267 284.144 80.1129C283.398 82.6166 283 85.2568 283 88.0008C283 91.6522 283.712 95.1496 285.006 98.3205C286.962 103.104 290.211 107.134 294.29 109.996C296.346 111.42 298.601 112.55 301.022 113.338C303.426 114.11 305.995 114.522 308.647 114.522C312.046 114.522 315.313 113.835 318.297 112.585C321.265 111.332 323.95 109.516 326.238 107.304L326.254 107.287C326.934 106.636 327.564 105.915 328.228 105.126C329.371 103.772 330.548 102.213 331.693 100.636C331.924 100.309 332.174 99.9827 332.405 99.6579C333.035 98.7488 341.276 86.251 341.954 85.2398C342.105 85.0171 342.27 84.7778 342.435 84.5368C343.564 82.8909 344.823 81.1249 345.984 79.5829C346.564 78.8111 347.145 78.0911 347.642 77.4917C348.155 76.8739 348.62 76.3766 348.952 76.0503C350.376 74.6624 352.052 73.5473 353.892 72.759C354.34 72.5714 354.787 72.4176 355.251 72.2617C356.71 71.8166 358.251 71.577 359.861 71.5603C362.066 71.5768 364.155 72.0223 366.044 72.8627C368.895 74.0966 371.333 76.1876 373.04 78.8111C373.903 80.132 374.583 81.5719 375.046 83.1136C375.51 84.6573 375.76 86.2862 375.76 88.0006C375.76 90.2808 375.311 92.4406 374.516 94.3944C373.305 97.3425 371.283 99.8639 368.746 101.628C367.47 102.521 366.078 103.224 364.585 103.686C363.11 104.167 361.519 104.441 359.861 104.441C357.738 104.441 355.732 104.013 353.891 103.241C352.052 102.469 350.376 101.337 348.952 99.9494C348.62 99.6229 348.155 99.1091 347.642 98.5097C346.746 97.4466 345.684 96.0403 344.624 94.5838C344.193 94.001 343.779 93.4 343.364 92.8006C343.231 93.0064 343.099 93.2126 342.95 93.4352C340.214 97.5839 338.489 100.207 337.545 101.629C337.793 101.972 338.042 102.298 338.29 102.642C338.954 103.516 339.618 104.356 340.28 105.126C340.927 105.914 341.574 106.636 342.253 107.287C344.541 109.516 347.243 111.332 350.211 112.585C353.195 113.835 356.461 114.522 359.861 114.522C363.392 114.522 366.774 113.785 369.84 112.447C374.466 110.425 378.361 107.065 381.132 102.829C382.506 100.721 383.618 98.3892 384.363 95.8862C385.11 93.4 385.508 90.7432 385.508 88.0008C385.508 84.3494 384.796 80.852 383.502 77.6795Z" fill="#FFC221"/>
</g>
<path d="M19.584 115.512C15.0613 115.512 11.8187 114.616 9.856 112.824C7.89333 110.947 6.912 107.661 6.912 102.968V55.48C6.912 54.1147 6.99733 53.0907 7.168 52.408C7.424 51.64 7.89333 51.128 8.576 50.872C9.25867 50.5307 10.2827 50.36 11.648 50.36H19.072C19.072 50.5307 18.9867 51.2133 18.816 52.408C18.7307 53.6027 18.688 55.0107 18.688 56.632V101.432C18.688 104.589 19.072 106.851 19.84 108.216C20.608 109.581 22.0587 110.264 24.192 110.264C24.8747 110.264 25.6853 110.179 26.624 110.008C27.648 109.837 28.288 109.709 28.544 109.624V114.488C28.032 114.573 27.136 114.744 25.856 115C24.576 115.341 22.4853 115.512 19.584 115.512ZM61.637 115.768C56.4317 115.768 52.037 115.427 48.453 114.744C44.9543 114.061 42.1383 112.781 40.005 110.904C37.957 109.027 36.5063 106.424 35.653 103.096C34.7997 99.768 34.373 95.4587 34.373 90.168C34.373 83.8533 35.1837 78.7333 36.805 74.808C38.4263 70.8827 41.285 68.024 45.381 66.232C49.5623 64.3547 55.365 63.416 62.789 63.416C68.5917 63.416 73.1997 64.1413 76.613 65.592C80.1117 66.9573 82.629 69.1333 84.165 72.12C85.701 75.1067 86.469 78.904 86.469 83.512V91.704H50.501C50.501 90.3387 50.7997 89.2293 51.397 88.376C51.9943 87.5227 53.1037 87.096 54.725 87.096H75.717L75.589 83.768C75.5037 78.9893 74.4797 75.4907 72.517 73.272C70.6397 71.0533 67.2263 69.944 62.277 69.944C58.181 69.944 54.981 70.584 52.677 71.864C50.373 73.144 48.7517 75.2347 47.813 78.136C46.8743 80.952 46.405 84.8773 46.405 89.912C46.405 95.1173 46.917 99.0853 47.941 101.816C49.0503 104.461 50.8423 106.253 53.317 107.192C55.877 108.131 59.4183 108.6 63.941 108.6C65.5623 108.6 67.4397 108.557 69.573 108.472C71.7917 108.387 74.0103 108.259 76.229 108.088C78.533 107.917 80.581 107.704 82.373 107.448C84.165 107.192 85.3597 106.936 85.957 106.68V108.472C85.957 109.411 85.7437 110.349 85.317 111.288C84.8903 112.227 83.9943 112.995 82.629 113.592C80.837 114.445 78.1917 115 74.693 115.256C71.2797 115.597 66.9277 115.768 61.637 115.768ZM120.961 115.768C115.67 115.768 111.361 115.512 108.033 115C104.705 114.573 102.145 113.763 100.353 112.568C98.561 111.373 97.3237 109.752 96.641 107.704C96.0437 105.656 95.745 103.096 95.745 100.024C95.745 95.672 96.2143 92.3867 97.153 90.168C98.177 87.864 99.8837 86.2853 102.273 85.432C104.748 84.5787 108.033 84.152 112.129 84.152C114.262 84.152 116.609 84.1947 119.169 84.28C121.814 84.3653 124.332 84.4933 126.721 84.664C129.196 84.7493 131.329 84.8773 133.121 85.048C134.998 85.2187 136.236 85.432 136.833 85.688C136.833 82.104 136.534 79.288 135.937 77.24C135.34 75.192 134.358 73.656 132.993 72.632C131.713 71.608 130.092 70.9253 128.129 70.584C126.166 70.2427 123.862 70.072 121.217 70.072C118.316 70.072 115.414 70.1573 112.513 70.328C109.697 70.4987 107.009 70.7973 104.449 71.224C101.974 71.6507 99.9263 72.2053 98.305 72.888V70.456C98.305 68.4933 98.817 67.0853 99.841 66.232C100.95 65.3787 102.273 64.824 103.809 64.568C105.516 64.1413 108.033 63.8 111.361 63.544C114.689 63.288 118.23 63.2027 121.985 63.288C126.764 63.288 130.817 63.544 134.145 64.056C137.558 64.4827 140.289 65.4213 142.337 66.872C144.47 68.3227 146.006 70.4987 146.945 73.4C147.969 76.3013 148.481 80.184 148.481 85.048V111.16C147.713 112.781 145.11 113.976 140.673 114.744C136.236 115.427 129.665 115.768 120.961 115.768ZM120.961 110.392C124.374 110.392 127.148 110.307 129.281 110.136C131.5 109.88 133.206 109.581 134.401 109.24C135.596 108.813 136.406 108.301 136.833 107.704V90.04C136.065 89.784 134.7 89.5707 132.737 89.4C130.774 89.144 128.726 88.9307 126.593 88.76C124.46 88.5893 122.668 88.504 121.217 88.504C118.06 88.504 115.5 88.7173 113.537 89.144C111.574 89.5707 110.166 90.552 109.313 92.088C108.46 93.624 108.033 96.0133 108.033 99.256C108.033 101.901 108.332 104.035 108.929 105.656C109.526 107.277 110.721 108.472 112.513 109.24C114.39 110.008 117.206 110.392 120.961 110.392ZM173.7 115H165.508C164.228 115 163.247 114.659 162.564 113.976C161.881 113.293 161.54 112.013 161.54 110.136V66.488C163.588 65.8907 166.447 65.2507 170.116 64.568C173.785 63.8853 178.18 63.544 183.3 63.544C188.335 63.544 192.303 63.8853 195.204 64.568C198.105 65.1653 200.239 66.104 201.604 67.384C203.055 68.5787 203.951 70.072 204.292 71.864C204.719 73.5707 204.932 75.576 204.932 77.88H193.412L193.284 76.088C193.284 74.04 192.729 72.5893 191.62 71.736C190.596 70.7973 189.359 70.2 187.908 69.944C186.457 69.688 185.007 69.56 183.556 69.56C181.337 69.56 179.332 69.7733 177.54 70.2C175.833 70.6267 174.553 71.1813 173.7 71.864V115ZM217.874 115C215.485 115 214.29 113.805 214.29 111.416V67.384C216.85 66.36 220.306 65.464 224.658 64.696C229.01 63.8427 233.959 63.416 239.506 63.416C244.967 63.416 249.319 63.7573 252.562 64.44C255.89 65.1227 258.407 66.232 260.114 67.768C261.821 69.2187 262.93 71.1387 263.442 73.528C264.039 75.9173 264.338 78.8613 264.338 82.36V110.136C264.338 111.331 264.21 112.312 263.954 113.08C263.783 113.848 263.314 114.36 262.546 114.616C261.863 114.872 260.797 115 259.346 115H252.306V79.8C252.306 76.472 251.282 74.0827 249.234 72.632C247.186 71.1813 243.943 70.456 239.506 70.456C238.141 70.456 236.605 70.584 234.898 70.84C233.191 71.0107 231.57 71.3093 230.034 71.736C228.498 72.1627 227.261 72.7173 226.322 73.4V115H217.874Z" fill="#0071DC"/>
<defs>
<clipPath id="clip0_10_9">
<rect width="102.508" height="106" fill="white" transform="translate(283 35)"/>
</clipPath>
</defs>
</svg>
