<svg width="417" height="169" viewBox="0 0 417 169" fill="none" xmlns="http://www.w3.org/2000/svg">
<path d="M371.141 77.4847C369.328 72.6283 366.317 68.5072 362.521 65.5902C360.632 64.1404 358.541 62.9872 356.298 62.2008C354.07 61.3974 351.689 60.9778 349.231 60.9778C346.08 60.9778 343.053 61.6773 340.288 62.9533C340.057 63.057 339.843 63.1612 339.628 63.284C337.139 64.5241 334.864 66.2709 332.914 68.3501C332.283 69.0308 331.685 69.7471 331.084 70.5506C330.025 71.9306 328.934 73.5204 327.874 75.1271C327.659 75.4579 327.428 75.8076 327.213 76.1404C326.63 77.0479 321.051 86.341 320.068 88.0006C319.576 88.838 318.992 89.7814 318.362 90.8118C318.224 91.0387 318.071 91.2843 317.918 91.5281C316.872 93.2222 315.705 95.0046 314.629 96.5773C314.092 97.362 313.553 98.0955 313.092 98.7078C312.617 99.3356 312.186 99.8422 311.879 100.175C310.558 101.589 309.005 102.742 307.301 103.528C305.595 104.315 303.736 104.751 301.769 104.751C300.417 104.751 299.111 104.541 297.882 104.158C297.252 103.965 296.637 103.721 296.038 103.424C293.395 102.165 291.136 100.035 289.553 97.3618C288.755 96.0177 288.125 94.5506 287.694 92.9779C287.28 91.4051 287.034 89.7472 287.034 88.0004C287.034 85.6771 287.45 83.4937 288.187 81.4841C289.309 78.4804 291.183 75.9304 293.534 74.1135C294.716 73.2044 296.007 72.5066 297.39 72.017C298.772 71.5275 300.232 71.2496 301.769 71.2496C303.736 71.2665 305.595 71.6863 307.301 72.471C309.005 73.2742 310.558 74.4103 311.879 75.8245C312.186 76.1571 312.617 76.6807 313.092 77.293C313.922 78.3933 314.905 79.8074 315.889 81.2932C316.273 81.8868 316.658 82.4804 317.042 83.091C318.517 80.6467 321.097 76.3497 322.449 74.1304C322.22 73.7807 321.989 73.4329 321.759 73.0831C321.144 72.1909 320.529 71.3363 319.915 70.55C319.3 69.7465 318.716 69.0302 318.086 68.3495C315.966 66.0772 313.462 64.2267 310.711 62.9524C307.946 61.6765 304.918 60.977 301.769 60.977C298.496 60.977 295.362 61.7292 292.505 63.1091C288.233 65.1527 284.621 68.5762 282.055 72.8901C280.78 75.0396 279.767 77.431 279.061 79.9641C278.369 82.515 278 85.2051 278 88.0008C278 91.7211 278.66 95.2845 279.859 98.5152C281.672 103.389 284.683 107.495 288.463 110.411C290.368 111.861 292.459 113.013 294.702 113.816C296.93 114.603 299.311 115.022 301.769 115.022C304.918 115.022 307.946 114.323 310.711 113.049C313.462 111.773 315.951 109.922 318.071 107.668L318.086 107.651C318.716 106.988 319.3 106.253 319.915 105.449C320.975 104.069 322.065 102.481 323.126 100.874C323.341 100.541 323.572 100.209 323.786 99.8779C324.37 98.9517 332.007 86.218 332.636 85.1878C332.776 84.9608 332.929 84.717 333.082 84.4714C334.128 82.7945 335.295 80.9952 336.371 79.4241C336.908 78.6377 337.446 77.9041 337.907 77.2934C338.383 76.664 338.814 76.1573 339.121 75.8249C340.441 74.4108 341.994 73.2746 343.699 72.4714C344.115 72.2803 344.529 72.1236 344.959 71.9647C346.311 71.5112 347.739 71.2672 349.231 71.2501C351.275 71.2669 353.21 71.7209 354.961 72.5771C357.604 73.8343 359.863 75.9647 361.445 78.6377C362.244 79.9835 362.875 81.4506 363.304 83.0214C363.734 84.5942 363.965 86.2538 363.965 88.0006C363.965 90.3239 363.55 92.5244 362.813 94.515C361.691 97.5187 359.817 100.088 357.465 101.886C356.283 102.795 354.993 103.511 353.609 103.982C352.242 104.472 350.768 104.752 349.231 104.752C347.264 104.752 345.405 104.315 343.699 103.529C341.994 102.742 340.441 101.589 339.121 100.175C338.813 99.8422 338.383 99.3187 337.907 98.708C337.077 97.6249 336.093 96.192 335.11 94.708C334.711 94.1142 334.327 93.5019 333.943 92.8912C333.82 93.1009 333.697 93.311 333.559 93.5377C331.023 97.7647 329.425 100.437 328.55 101.886C328.78 102.236 329.011 102.568 329.24 102.918C329.856 103.808 330.471 104.665 331.084 105.449C331.684 106.252 332.283 106.988 332.913 107.651C335.033 109.922 337.538 111.773 340.288 113.049C343.053 114.323 346.08 115.022 349.231 115.022C352.503 115.022 355.638 114.272 358.48 112.909C362.766 110.848 366.377 107.425 368.944 103.109C370.218 100.961 371.248 98.5853 371.939 96.035C372.631 93.5019 373 90.7949 373 88.0008C373 84.2805 372.34 80.7172 371.141 77.4847Z" fill="#FFC221"/>
<path d="M19.584 115.512C15.0613 115.512 11.8187 114.616 9.856 112.824C7.89333 110.947 6.912 107.661 6.912 102.968V55.48C6.912 54.1147 6.99733 53.0907 7.168 52.408C7.424 51.64 7.89333 51.128 8.576 50.872C9.25867 50.5307 10.2827 50.36 11.648 50.36H19.072C19.072 50.5307 18.9867 51.2133 18.816 52.408C18.7307 53.6027 18.688 55.0107 18.688 56.632V101.432C18.688 104.589 19.072 106.851 19.84 108.216C20.608 109.581 22.0587 110.264 24.192 110.264C24.8747 110.264 25.6853 110.179 26.624 110.008C27.648 109.837 28.288 109.709 28.544 109.624V114.488C28.032 114.573 27.136 114.744 25.856 115C24.576 115.341 22.4853 115.512 19.584 115.512ZM61.637 115.768C56.4317 115.768 52.037 115.427 48.453 114.744C44.9543 114.061 42.1383 112.781 40.005 110.904C37.957 109.027 36.5063 106.424 35.653 103.096C34.7997 99.768 34.373 95.4587 34.373 90.168C34.373 83.8533 35.1837 78.7333 36.805 74.808C38.4263 70.8827 41.285 68.024 45.381 66.232C49.5623 64.3547 55.365 63.416 62.789 63.416C68.5917 63.416 73.1997 64.1413 76.613 65.592C80.1117 66.9573 82.629 69.1333 84.165 72.12C85.701 75.1067 86.469 78.904 86.469 83.512V91.704H50.501C50.501 90.3387 50.7997 89.2293 51.397 88.376C51.9943 87.5227 53.1037 87.096 54.725 87.096H75.717L75.589 83.768C75.5037 78.9893 74.4797 75.4907 72.517 73.272C70.6397 71.0533 67.2263 69.944 62.277 69.944C58.181 69.944 54.981 70.584 52.677 71.864C50.373 73.144 48.7517 75.2347 47.813 78.136C46.8743 80.952 46.405 84.8773 46.405 89.912C46.405 95.1173 46.917 99.0853 47.941 101.816C49.0503 104.461 50.8423 106.253 53.317 107.192C55.877 108.131 59.4183 108.6 63.941 108.6C65.5623 108.6 67.4397 108.557 69.573 108.472C71.7917 108.387 74.0103 108.259 76.229 108.088C78.533 107.917 80.581 107.704 82.373 107.448C84.165 107.192 85.3597 106.936 85.957 106.68V108.472C85.957 109.411 85.7437 110.349 85.317 111.288C84.8903 112.227 83.9943 112.995 82.629 113.592C80.837 114.445 78.1917 115 74.693 115.256C71.2797 115.597 66.9277 115.768 61.637 115.768ZM120.961 115.768C115.67 115.768 111.361 115.512 108.033 115C104.705 114.573 102.145 113.763 100.353 112.568C98.561 111.373 97.3237 109.752 96.641 107.704C96.0437 105.656 95.745 103.096 95.745 100.024C95.745 95.672 96.2143 92.3867 97.153 90.168C98.177 87.864 99.8837 86.2853 102.273 85.432C104.748 84.5787 108.033 84.152 112.129 84.152C114.262 84.152 116.609 84.1947 119.169 84.28C121.814 84.3653 124.332 84.4933 126.721 84.664C129.196 84.7493 131.329 84.8773 133.121 85.048C134.998 85.2187 136.236 85.432 136.833 85.688C136.833 82.104 136.534 79.288 135.937 77.24C135.34 75.192 134.358 73.656 132.993 72.632C131.713 71.608 130.092 70.9253 128.129 70.584C126.166 70.2427 123.862 70.072 121.217 70.072C118.316 70.072 115.414 70.1573 112.513 70.328C109.697 70.4987 107.009 70.7973 104.449 71.224C101.974 71.6507 99.9263 72.2053 98.305 72.888V70.456C98.305 68.4933 98.817 67.0853 99.841 66.232C100.95 65.3787 102.273 64.824 103.809 64.568C105.516 64.1413 108.033 63.8 111.361 63.544C114.689 63.288 118.23 63.2027 121.985 63.288C126.764 63.288 130.817 63.544 134.145 64.056C137.558 64.4827 140.289 65.4213 142.337 66.872C144.47 68.3227 146.006 70.4987 146.945 73.4C147.969 76.3013 148.481 80.184 148.481 85.048V111.16C147.713 112.781 145.11 113.976 140.673 114.744C136.236 115.427 129.665 115.768 120.961 115.768ZM120.961 110.392C124.374 110.392 127.148 110.307 129.281 110.136C131.5 109.88 133.206 109.581 134.401 109.24C135.596 108.813 136.406 108.301 136.833 107.704V90.04C136.065 89.784 134.7 89.5707 132.737 89.4C130.774 89.144 128.726 88.9307 126.593 88.76C124.46 88.5893 122.668 88.504 121.217 88.504C118.06 88.504 115.5 88.7173 113.537 89.144C111.574 89.5707 110.166 90.552 109.313 92.088C108.46 93.624 108.033 96.0133 108.033 99.256C108.033 101.901 108.332 104.035 108.929 105.656C109.526 107.277 110.721 108.472 112.513 109.24C114.39 110.008 117.206 110.392 120.961 110.392ZM173.7 115H165.508C164.228 115 163.247 114.659 162.564 113.976C161.881 113.293 161.54 112.013 161.54 110.136V66.488C163.588 65.8907 166.447 65.2507 170.116 64.568C173.785 63.8853 178.18 63.544 183.3 63.544C188.335 63.544 192.303 63.8853 195.204 64.568C198.105 65.1653 200.239 66.104 201.604 67.384C203.055 68.5787 203.951 70.072 204.292 71.864C204.719 73.5707 204.932 75.576 204.932 77.88H193.412L193.284 76.088C193.284 74.04 192.729 72.5893 191.62 71.736C190.596 70.7973 189.359 70.2 187.908 69.944C186.457 69.688 185.007 69.56 183.556 69.56C181.337 69.56 179.332 69.7733 177.54 70.2C175.833 70.6267 174.553 71.1813 173.7 71.864V115ZM217.874 115C215.485 115 214.29 113.805 214.29 111.416V67.384C216.85 66.36 220.306 65.464 224.658 64.696C229.01 63.8427 233.959 63.416 239.506 63.416C244.967 63.416 249.319 63.7573 252.562 64.44C255.89 65.1227 258.407 66.232 260.114 67.768C261.821 69.2187 262.93 71.1387 263.442 73.528C264.039 75.9173 264.338 78.8613 264.338 82.36V110.136C264.338 111.331 264.21 112.312 263.954 113.08C263.783 113.848 263.314 114.36 262.546 114.616C261.863 114.872 260.797 115 259.346 115H252.306V79.8C252.306 76.472 251.282 74.0827 249.234 72.632C247.186 71.1813 243.943 70.456 239.506 70.456C238.141 70.456 236.605 70.584 234.898 70.84C233.191 71.0107 231.57 71.3093 230.034 71.736C228.498 72.1627 227.261 72.7173 226.322 73.4V115H217.874Z" fill="#0071DC"/>
</svg>
